HIERARCHY
ROOT Root
{
  OFFSET 0.0 0.0 0.0
  CHANNELS 6 Xposition Yposition Zposition Zrotation Yrotation Xrotation
  JOINT Hips
  {
    OFFSET 0.0 100.0 0.0
    CHANNELS 6 Xposition Yposition Zposition Zrotation Yrotation Xrotation
    JOINT Spine1
    {
      OFFSET 5.003913 -0.037094 -0.013727
      CHANNELS 3 Zrotation Yrotation Xrotation
      JOINT Spine2
      {
        OFFSET 7.125363 -1e-06 0.0
        CHANNELS 3 Zrotation Yrotation Xrotation
        JOINT Chest
        {
          OFFSET 7.594027 1e-06 0.0
          CHANNELS 3 Zrotation Yrotation Xrotation
          JOINT Neck1
          {
            OFFSET 26.313086 -0.460272 -0.181672
            CHANNELS 3 Zrotation Yrotation Xrotation
            JOINT Neck2
            {
              OFFSET 8.045911 0.0 0.0
              CHANNELS 3 Zrotation Yrotation Xrotation
              JOINT Head
              {
                OFFSET 6.432774 0.0 0.0
                CHANNELS 3 Zrotation Yrotation Xrotation
                JOINT HeadEnd
                {
                  OFFSET 16.169773 0.06451 0.00362
                  CHANNELS 3 Zrotation Yrotation Xrotation
                }
                JOINT Jaw
                {
                  OFFSET 0.108741 3.12938 0.002639
                  CHANNELS 3 Zrotation Yrotation Xrotation
                }
                JOINT LeftEye
                {
                  OFFSET 4.45173 8.166359 3.206392
                  CHANNELS 3 Zrotation Yrotation Xrotation
                }
                JOINT RightEye
                {
                  OFFSET 4.436895 8.135758 -3.222429
                  CHANNELS 3 Zrotation Yrotation Xrotation
                }
              }
            }
          }
          JOINT LeftShoulder
          {
            OFFSET 23.218927 5.195579 1.621656
            CHANNELS 3 Zrotation Yrotation Xrotation
            JOINT LeftArm
            {
              OFFSET 15.902118 2e-06 -2e-06
              CHANNELS 3 Zrotation Yrotation Xrotation
              JOINT LeftForeArm
              {
                OFFSET 28.739307 0.0 -1e-06
                CHANNELS 3 Zrotation Yrotation Xrotation
                JOINT LeftHand
                {
                  OFFSET 27.093981 -4e-06 0.0
                  CHANNELS 3 Zrotation Yrotation Xrotation
                  JOINT LeftHandThumb1
                  {
                    OFFSET 2.276781 3.380274 0.83384
                    CHANNELS 3 Zrotation Yrotation Xrotation
                    JOINT LeftHandThumb2
                    {
                      OFFSET 4.705309 -1e-06 -1e-06
                      CHANNELS 3 Zrotation Yrotation Xrotation
                      JOINT LeftHandThumb3
                      {
                        OFFSET 2.798515 0.0 3e-06
                        CHANNELS 3 Zrotation Yrotation Xrotation
                        JOINT LeftHandThumbEnd
                        {
                          OFFSET 3.180793 4e-06 -4e-06
                          CHANNELS 3 Zrotation Yrotation Xrotation
                        }
                      }
                    }
                  }
                  JOINT LeftHandIndex1
                  {
                    OFFSET 3.247786 2.352677 0.137192
                    CHANNELS 3 Zrotation Yrotation Xrotation
                    JOINT LeftHandIndex2
                    {
                      OFFSET 6.367095 1e-06 0.0
                      CHANNELS 3 Zrotation Yrotation Xrotation
                      JOINT LeftHandIndex3
                      {
                        OFFSET 3.662364 0.0 0.0
                        CHANNELS 3 Zrotation Yrotation Xrotation
                        JOINT LeftHandIndex4
                        {
                          OFFSET 2.329242 4e-06 -4e-06
                          CHANNELS 3 Zrotation Yrotation Xrotation
                          JOINT LeftHandIndexEnd
                          {
                            OFFSET 2.767823 1e-06 0.0
                            CHANNELS 3 Zrotation Yrotation Xrotation
                          }
                        }
                      }
                    }
                  }
                  JOINT LeftHandMiddle1
                  {
                    OFFSET 3.163612 0.945023 -0.406112
                    CHANNELS 3 Zrotation Yrotation Xrotation
                    JOINT LeftHandMiddle2
                    {
                      OFFSET 6.276789 3e-06 0.0
                      CHANNELS 3 Zrotation Yrotation Xrotation
                      JOINT LeftHandMiddle3
                      {
                        OFFSET 4.35652 -1e-06 4e-06
                        CHANNELS 3 Zrotation Yrotation Xrotation
                        JOINT LeftHandMiddle4
                        {
                          OFFSET 2.996877 0.0 8e-06
                          CHANNELS 3 Zrotation Yrotation Xrotation
                          JOINT LeftHandMiddleEnd
                          {
                            OFFSET 2.323256 3e-06 -4e-06
                            CHANNELS 3 Zrotation Yrotation Xrotation
                          }
                        }
                      }
                    }
                  }
                  JOINT LeftHandRing1
                  {
                    OFFSET 2.882606 -0.309162 0.107445
                    CHANNELS 3 Zrotation Yrotation Xrotation
                    JOINT LeftHandRing2
                    {
                      OFFSET 6.033198 0.0 4e-06
                      CHANNELS 3 Zrotation Yrotation Xrotation
                      JOINT LeftHandRing3
                      {
                        OFFSET 4.350578 3e-06 0.0
                        CHANNELS 3 Zrotation Yrotation Xrotation
                        JOINT LeftHandRing4
                        {
                          OFFSET 2.651321 2e-06 -7e-06
                          CHANNELS 3 Zrotation Yrotation Xrotation
                          JOINT LeftHandRingEnd
                          {
                            OFFSET 1.937663 1e-06 -4e-06
                            CHANNELS 3 Zrotation Yrotation Xrotation
                          }
                        }
                      }
                    }
                  }
                  JOINT LeftHandPinky1
                  {
                    OFFSET 2.865315 -1.525436 0.575687
                    CHANNELS 3 Zrotation Yrotation Xrotation
                    JOINT LeftHandPinky2
                    {
                      OFFSET 5.54936 1e-06 -8e-06
                      CHANNELS 3 Zrotation Yrotation Xrotation
                      JOINT LeftHandPinky3
                      {
                        OFFSET 3.070974 0.0 -4e-06
                        CHANNELS 3 Zrotation Yrotation Xrotation
                        JOINT LeftHandPinky4
                        {
                          OFFSET 1.549672 1e-06 0.0
                          CHANNELS 3 Zrotation Yrotation Xrotation
                          JOINT LeftHandPinkyEnd
                          {
                            OFFSET 1.952123 0.0 0.0
                            CHANNELS 3 Zrotation Yrotation Xrotation
                          }
                        }
                      }
                    }
                  }
                }
              }
            }
          }
          JOINT RightShoulder
          {
            OFFSET 23.161716 5.296122 -1.380114
            CHANNELS 3 Zrotation Yrotation Xrotation
            JOINT RightArm
            {
              OFFSET -16.027195 -2e-06 1.1e-05
              CHANNELS 3 Zrotation Yrotation Xrotation
              JOINT RightForeArm
              {
                OFFSET -28.736639 4e-06 2e-06
                CHANNELS 3 Zrotation Yrotation Xrotation
                JOINT RightHand
                {
                  OFFSET -27.133619 6e-06 0.0
                  CHANNELS 3 Zrotation Yrotation Xrotation
                  JOINT RightHandThumb1
                  {
                    OFFSET -2.274328 -3.351035 -0.83067
                    CHANNELS 3 Zrotation Yrotation Xrotation
                    JOINT RightHandThumb2
                    {
                      OFFSET -4.703594 -3e-06 2e-06
                      CHANNELS 3 Zrotation Yrotation Xrotation
                      JOINT RightHandThumb3
                      {
                        OFFSET -2.794935 -4e-06 -3e-06
                        CHANNELS 3 Zrotation Yrotation Xrotation
                        JOINT RightHandThumbEnd
                        {
                          OFFSET -3.183852 4e-06 1e-06
                          CHANNELS 3 Zrotation Yrotation Xrotation
                        }
                      }
                    }
                  }
                  JOINT RightHandIndex1
                  {
                    OFFSET -3.253496 -2.33755 -0.127667
                    CHANNELS 3 Zrotation Yrotation Xrotation
                    JOINT RightHandIndex2
                    {
                      OFFSET -6.344434 0.0 0.0
                      CHANNELS 3 Zrotation Yrotation Xrotation
                      JOINT RightHandIndex3
                      {
                        OFFSET -3.654871 0.0 -8e-06
                        CHANNELS 3 Zrotation Yrotation Xrotation
                        JOINT RightHandIndex4
                        {
                          OFFSET -2.327586 -1e-06 0.0
                          CHANNELS 3 Zrotation Yrotation Xrotation
                          JOINT RightHandIndexEnd
                          {
                            OFFSET -2.770001 3e-06 8e-06
                            CHANNELS 3 Zrotation Yrotation Xrotation
                          }
                        }
                      }
                    }
                  }
                  JOINT RightHandMiddle1
                  {
                    OFFSET -3.168223 -0.944764 0.411762
                    CHANNELS 3 Zrotation Yrotation Xrotation
                    JOINT RightHandMiddle2
                    {
                      OFFSET -6.266691 -1e-06 -4e-06
                      CHANNELS 3 Zrotation Yrotation Xrotation
                      JOINT RightHandMiddle3
                      {
                        OFFSET -4.348901 0.0 0.0
                        CHANNELS 3 Zrotation Yrotation Xrotation
                        JOINT RightHandMiddle4
                        {
                          OFFSET -3.00024 2e-06 -4e-06
                          CHANNELS 3 Zrotation Yrotation Xrotation
                          JOINT RightHandMiddleEnd
                          {
                            OFFSET -2.321477 -4e-06 -4e-06
                            CHANNELS 3 Zrotation Yrotation Xrotation
                          }
                        }
                      }
                    }
                  }
                  JOINT RightHandRing1
                  {
                    OFFSET -2.885654 0.293261 -0.119232
                    CHANNELS 3 Zrotation Yrotation Xrotation
                    JOINT RightHandRing2
                    {
                      OFFSET -6.032835 -1e-06 -4e-06
                      CHANNELS 3 Zrotation Yrotation Xrotation
                      JOINT RightHandRing3
                      {
                        OFFSET -4.33881 0.0 -4e-06
                        CHANNELS 3 Zrotation Yrotation Xrotation
                        JOINT RightHandRing4
                        {
                          OFFSET -2.654903 -4e-06 -4e-06
                          CHANNELS 3 Zrotation Yrotation Xrotation
                          JOINT RightHandRingEnd
                          {
                            OFFSET -1.935122 0.0 4e-06
                            CHANNELS 3 Zrotation Yrotation Xrotation
                          }
                        }
                      }
                    }
                  }
                  JOINT RightHandPinky1
                  {
                    OFFSET -2.866241 1.503904 -0.60527
                    CHANNELS 3 Zrotation Yrotation Xrotation
                    JOINT RightHandPinky2
                    {
                      OFFSET -5.553177 -2e-06 0.0
                      CHANNELS 3 Zrotation Yrotation Xrotation
                      JOINT RightHandPinky3
                      {
                        OFFSET -3.062664 -1e-06 -4e-06
                        CHANNELS 3 Zrotation Yrotation Xrotation
                        JOINT RightHandPinky4
                        {
                          OFFSET -1.546529 2e-06 4e-06
                          CHANNELS 3 Zrotation Yrotation Xrotation
                          JOINT RightHandPinkyEnd
                          {
                            OFFSET -1.952341 0.0 -4e-06
                            CHANNELS 3 Zrotation Yrotation Xrotation
                          }
                        }
                      }
                    }
                  }
                }
              }
            }
          }
        }
      }
    }
    JOINT LeftLeg
    {
      OFFSET -8.443107 2.567604 10.043214
      CHANNELS 3 Zrotation Yrotation Xrotation
      JOINT LeftShin
      {
        OFFSET 43.229198 1e-06 -1e-06
        CHANNELS 3 Zrotation Yrotation Xrotation
        JOINT LeftFoot
        {
          OFFSET 42.298611 1e-06 1e-06
          CHANNELS 3 Zrotation Yrotation Xrotation
          JOINT LeftToeBase
          {
            OFFSET 14.165858 1e-06 0.0
            CHANNELS 3 Zrotation Yrotation Xrotation
            JOINT LeftToeEnd
            {
              OFFSET 6.7141 -0.234461 0.0
              CHANNELS 3 Zrotation Yrotation Xrotation
            }
          }
        }
      }
    }
    JOINT RightLeg
    {
      OFFSET -8.303923 2.592729 -10.047278
      CHANNELS 3 Zrotation Yrotation Xrotation
      JOINT RightShin
      {
        OFFSET -43.369682 0.0 1e-06
        CHANNELS 3 Zrotation Yrotation Xrotation
        JOINT RightFoot
        {
          OFFSET -42.260784 4e-06 2e-06
          CHANNELS 3 Zrotation Yrotation Xrotation
          JOINT RightToeBase
          {
            OFFSET -14.222245 -2e-06 -1e-06
            CHANNELS 3 Zrotation Yrotation Xrotation
            JOINT RightToeEnd
            {
              OFFSET -6.660062 0.232574 -2e-06
              CHANNELS 3 Zrotation Yrotation Xrotation
            }
          }
        }
      }
    }
  }
}
MOTION
Frames: 5
Frame Time: 0.03333333333333333
0.0 0.0 0.0 0.0 -0.0 0.0 0.149415 100.184288 2.757505 90.574059 -4.692139 91.73761 -0.805107 0.418771 0.028719 -11.329656 -0.253924 0.638037 8.303662 -0.317382 -1.592982 -9.608723 -5.75927 2.63244 -2.584113 0.697459 2.956062 -38.826424 3.546785 -4.653393 6e-06 -0.0 -0.0 0.014262 -0.103946 -0.076731 0.830579 -0.230099 0.031463 0.776957 0.023293 -0.164011 -28.271763 -62.892879 33.792549 -12.255167 -16.649052 -70.556686 71.807625 -2.734118 -0.556653 -13.139827 24.35248 -20.431198 17.636625 -26.322725 52.411179 -19.466665 -14.395597 29.410385 -1e-06 -8.774822 -2e-06 16.630419 -17.114174 5.261957 -0.609776 -1.795655 -3.889327 -4.807089 -11.046807 -2.937849 5e-06 -20.976011 -1e-06 -5.019969 -25.033546 -4.031881 5e-06 1e-06 0.0 -10.634532 -5.68697 -3.565587 10.573274 -17.922947 -3.113902 3e-06 -13.821205 0.0 -0.501776 -31.181498 -4.027018 -12.229104 -59.880753 8.241625 -13.982714 -7.150196 -2.87504 13.772727 -8.401491 -3.218242 0.347736 -34.21154 0.771652 -0.963027 -17.73336 2.621018 0.0 1e-06 -0.0 -17.346418 -20.095217 -4.201783 21.757555 -1.638375 3.866427 2e-06 -6.338822 0.0 -1.697587 -22.591738 -6.194007 1e-06 -3e-06 -2e-06 170.424759 -64.974167 15.460478 0.148527 -5.426477 -80.346848 68.560905 -0.420828 1.715724 6.127463 25.262592 29.010925 22.182108 -20.375893 49.933319 -16.701815 -16.743532 28.47653 -2e-06 -12.690601 -0.0 16.151333 -16.611273 2.199962 -0.105919 -1.513855 -4.275879 -5.039041 -5.612873 -2.953556 3e-06 -11.020525 -3e-06 -6.1113 -15.895334 -3.84047 -1e-06 -0.0 -2e-06 -10.283372 -5.680289 -4.341837 11.028296 -11.302405 -2.372636 -1.384269 -14.238583 -6.320123 -0.625441 -26.924191 -3.827601 -4.981488 -48.538807 -3.3056 -13.708526 -7.363478 -3.720938 18.14115 -14.052739 -3.242674 4e-06 -18.787271 -3e-06 -0.429712 -8.456047 2.555503 -1e-06 4e-06 1e-06 -15.923539 -20.094484 -5.473583 30.419218 -7.190825 1.735925 2e-06 -8.162927 0.0 -1.861902 -22.861475 -6.167945 -1e-06 -1e-06 -1e-06 179.664597 -1.888244 1.18893 8.723845 -0.166604 0.055446 -80.494972 1.458074 -3.217449 -4.530921 1.5699 2.177781 -1.0 -0.0 -0.0 2.316458 -2.434566 -6.153995 6.004877 -0.089222 0.000416 -80.552116 -1.721738 -4.383609 -3.90686 0.795799 1.733118 -1.000003 -0.0 -0.0 
0.0 0.0 0.0 0.0 -0.0 0.0 0.234844 100.163651 2.813235 90.562965 -4.68935 91.771851 -0.81363 0.43685 0.038699 -11.342631 -0.222484 0.724153 8.191007 -0.277061 -1.521994 -9.683757 -6.17003 2.631882 -2.572614 0.75328 2.95447 -39.030609 3.403568 -4.755819 6e-06 0.0 0.0 0.018448 -0.100099 -0.078252 0.871876 -0.224995 0.028831 0.806954 0.027055 -0.162792 -26.845903 -61.981979 31.949768 -12.479796 -14.255378 -70.862297 67.961113 -2.710586 -0.573243 -13.071783 24.516262 -20.922512 17.636631 -26.322725 52.41119 -19.466661 -14.395597 29.410385 -1e-06 -8.774822 -1e-06 16.714092 -17.083174 5.228913 -0.609775 -1.795653 -3.889327 -4.807091 -11.046809 -2.93785 7e-06 -20.976013 -2e-06 -5.019969 -25.03356 -4.031881 7e-06 2e-06 -0.0 -10.634533 -5.686971 -3.565588 10.573272 -17.922951 -3.113901 4e-06 -13.821205 -1e-06 -0.501773 -31.181498 -4.027018 -12.166069 -59.913239 8.226427 -13.982712 -7.150198 -2.875044 13.77273 -8.401493 -3.218242 0.347737 -34.211555 0.771653 -0.963028 -17.733368 2.621019 -0.0 -1e-06 0.0 -17.346416 -20.095217 -4.201784 21.757557 -1.638376 3.866429 1e-06 -6.338823 -1e-06 -1.697585 -22.591743 -6.194009 -0.0 -6e-06 -2e-06 171.554077 -64.299629 14.030011 -0.933247 -3.965616 -80.591553 65.663689 -0.554461 1.948558 6.865703 25.869759 29.349201 22.182121 -20.375898 49.933323 -16.701818 -16.74353 28.476532 -4e-06 -12.690604 -2e-06 16.210264 -16.708582 2.155061 -0.105919 -1.513857 -4.275884 -5.039041 -5.612873 -2.953558 5e-06 -11.020527 -2e-06 -6.111296 -15.895336 -3.84047 -0.0 -0.0 -3e-06 -10.283371 -5.68029 -4.341839 11.028297 -11.302409 -2.372635 -1.384268 -14.238585 -6.320123 -0.625437 -26.924198 -3.827602 -4.90263 -48.619389 -3.451673 -13.708526 -7.363477 -3.720942 18.141153 -14.052744 -3.242678 7e-06 -18.787271 -1e-06 -0.42971 -8.456048 2.555503 -0.0 0.0 1e-06 -15.923536 -20.094486 -5.473588 30.419222 -7.19083 1.735926 4e-06 -8.162927 -1e-06 -1.8619 -22.861473 -6.167946 0.0 -4e-06 -2e-06 179.797012 -1.848063 1.247446 8.53885 -0.171253 0.060669 -80.560562 1.509445 -3.168858 -4.53884 1.57549 2.177461 -1.0 0.0 -0.0 2.385587 -2.488471 -6.359308 5.997293 -0.089717 -0.002113 -80.604378 -1.597489 -4.390572 -3.965995 0.79396 1.727393 -1.000002 0.0 0.0 
0.0 0.0 0.0 0.0 -0.0 0.0 0.339135 100.154305 2.861322 90.556374 -4.650953 91.836472 -0.840261 0.453074 0.030288 -11.376924 -0.195233 0.796229 8.128061 -0.220057 -1.438725 -9.694619 -6.577265 2.618513 -2.560282 0.802423 2.978261 -39.304325 3.198668 -4.758669 6e-06 -0.0 0.0 0.026474 -0.098278 -0.082619 0.912112 -0.224133 0.023432 0.836061 0.030999 -0.165218 -25.516251 -61.045185 30.199511 -12.584308 -11.942397 -70.936333 64.055428 -2.614583 -0.591675 -12.878041 24.735304 -21.354721 17.636633 -26.322737 52.411198 -19.466658 -14.395597 29.410389 -0.0 -8.774821 -2e-06 16.739035 -17.065336 5.210917 -0.609777 -1.795653 -3.889328 -4.807089 -11.046811 -2.93785 3e-06 -20.976019 1e-06 -5.019972 -25.03356 -4.03188 8e-06 2e-06 0.0 -10.634533 -5.686971 -3.565587 10.573272 -17.922953 -3.1139 1e-06 -13.821211 2e-06 -0.501779 -31.181507 -4.027015 -12.141806 -59.875896 8.224552 -13.982715 -7.150197 -2.875041 13.772731 -8.401493 -3.218241 0.347733 -34.211559 0.771657 -0.96303 -17.73337 2.621021 1e-06 -1e-06 -0.0 -17.346422 -20.095221 -4.20178 21.757557 -1.638375 3.866428 1e-06 -6.338825 1e-06 -1.697589 -22.591747 -6.194006 -1e-06 -3e-06 -3e-06 172.702789 -63.673229 12.699753 -1.827909 -2.48321 -80.757401 62.817474 -0.606004 2.195421 7.613456 26.486658 29.433231 22.182123 -20.375898 49.933327 -16.701815 -16.743528 28.476532 -4e-06 -12.690601 -2e-06 16.311333 -16.80554 2.081696 -0.10592 -1.513857 -4.275882 -5.039042 -5.612873 -2.953558 4e-06 -11.020527 1e-06 -6.111298 -15.895338 -3.840471 0.0 -0.0 -2e-06 -10.283373 -5.680288 -4.34184 11.028296 -11.302407 -2.372635 -1.384268 -14.238581 -6.320124 -0.625437 -26.924191 -3.8276 -4.863312 -48.745689 -3.548824 -13.708528 -7.363475 -3.720939 18.141157 -14.052744 -3.242676 8e-06 -18.787271 -1e-06 -0.429712 -8.456043 2.555505 -0.0 1e-06 -0.0 -15.923538 -20.094486 -5.473586 30.419222 -7.190831 1.735928 4e-06 -8.162927 -1e-06 -1.861899 -22.861479 -6.167944 -0.0 -2e-06 -1e-06 179.932587 -1.798796 1.311849 8.399062 -0.173815 0.054195 -80.578598 1.570218 -3.111364 -4.541453 1.573896 2.175349 -1.0 -0.0 0.0 2.468941 -2.559138 -6.637907 6.03164 -0.093187 -0.006989 -80.617516 -1.412883 -4.416625 -4.01552 0.797403 1.723586 -1.000002 0.0 0.0 
0.0 0.0 0.0 0.0 -0.0 0.0 0.460066 100.155029 2.895472 90.574249 -4.593267 91.914307 -0.880659 0.455527 -0.000443 -11.420218 -0.182433 0.842777 8.104592 -0.161344 -1.34104 -9.656464 -6.956573 2.636108 -2.559567 0.831691 2.980444 -39.638691 2.979243 -4.672941 6e-06 -0.0 -0.0 0.033425 -0.097245 -0.088805 0.947613 -0.227794 0.017048 0.862588 0.037665 -0.171058 -24.345655 -60.109089 28.66806 -12.613822 -9.845268 -70.89502 60.342899 -2.523245 -0.655329 -12.59354 24.9811 -21.610151 17.636625 -26.322727 52.411201 -19.46666 -14.395596 29.410393 -0.0 -8.774819 -2e-06 16.769405 -17.070971 5.197163 -0.609779 -1.795652 -3.889326 -4.807087 -11.046809 -2.937851 3e-06 -20.976011 -2e-06 -5.019966 -25.033552 -4.031883 6e-06 -1e-06 -0.0 -10.634532 -5.686971 -3.565588 10.573271 -17.922947 -3.113901 1e-06 -13.821205 1e-06 -0.501777 -31.181498 -4.027017 -12.202957 -59.844166 8.261527 -13.982711 -7.150199 -2.875042 13.772724 -8.401489 -3.218241 0.347734 -34.21154 0.771653 -0.963027 -17.733366 2.621018 0.0 -1e-06 1e-06 -17.346413 -20.095217 -4.201784 21.757555 -1.638373 3.866428 1e-06 -6.338822 0.0 -1.69759 -22.59174 -6.194009 1e-06 -4e-06 -2e-06 173.899887 -63.11108 11.429169 -2.589676 -1.074817 -80.77623 60.149563 -0.549121 2.434985 8.268592 27.090691 29.411421 22.182114 -20.375895 49.933319 -16.701809 -16.743526 28.476522 -3e-06 -12.690598 -3e-06 16.412649 -16.89369 2.020709 -0.10592 -1.513856 -4.27588 -5.039039 -5.61287 -2.953557 4e-06 -11.02052 -1e-06 -6.111296 -15.895329 -3.840471 1e-06 0.0 -2e-06 -10.283367 -5.680289 -4.341841 11.028291 -11.302404 -2.372632 -1.384267 -14.238579 -6.320121 -0.625439 -26.924189 -3.827598 -4.867472 -48.914772 -3.60795 -13.708522 -7.363474 -3.720938 18.141148 -14.052739 -3.242675 7e-06 -18.78727 -1e-06 -0.429711 -8.456044 2.555503 0.0 2e-06 -0.0 -15.923532 -20.094482 -5.473584 30.419205 -7.190827 1.735928 3e-06 -8.162927 1e-06 -1.861901 -22.861467 -6.167942 1e-06 -3e-06 -1e-06 -179.928116 -1.718844 1.371242 8.268946 -0.171318 0.036015 -80.533905 1.654066 -3.03333 -4.554516 1.559677 2.172353 -1.0 0.0 0.0 2.532797 -2.662021 -6.955 6.129215 -0.094296 -0.017334 -80.624786 -1.174399 -4.448565 -4.044419 0.801318 1.721484 -1.0 -0.0 0.0 
0.0 0.0 0.0 0.0 -0.0 0.0 0.589947 100.164757 2.910776 90.596497 -4.516069 91.988548 -0.925898 0.461862 -0.024649 -11.458915 -0.174333 0.868218 8.103789 -0.104691 -1.243834 -9.61257 -7.33555 2.658862 -2.567707 0.839991 2.949328 -39.998589 2.784663 -4.56409 6e-06 -0.0 0.0 0.040733 -0.102675 -0.098987 0.977228 -0.235973 0.006097 0.884361 0.03573 -0.181173 -23.285997 -59.218498 27.290413 -12.644175 -7.914059 -70.767715 56.807617 -2.468221 -0.728714 -12.332677 25.247316 -21.948864 17.636627 -26.322725 52.411186 -19.466658 -14.395596 29.410389 -1e-06 -8.774822 -1e-06 16.813492 -17.076847 5.18026 -0.609777 -1.795652 -3.889327 -4.807088 -11.04681 -2.937849 2e-06 -20.976015 -1e-06 -5.019971 -25.033556 -4.03188 6e-06 -0.0 -1e-06 -10.634533 -5.686973 -3.565587 10.573272 -17.922947 -3.1139 3e-06 -13.821206 0.0 -0.501776 -31.181498 -4.027019 -12.262136 -59.805965 8.265504 -13.982714 -7.150199 -2.875042 13.772728 -8.40149 -3.218241 0.347734 -34.211552 0.771653 -0.963028 -17.73337 2.621019 1e-06 -1e-06 1e-06 -17.346422 -20.095219 -4.20178 21.757557 -1.638373 3.866428 1e-06 -6.338823 1e-06 -1.697588 -22.591742 -6.194008 -0.0 -2e-06 -3e-06 175.110916 -62.570469 10.222087 -3.269534 0.240655 -80.622032 57.625698 -0.403221 2.676554 8.776186 27.770321 29.290642 22.182116 -20.375898 49.933319 -16.701817 -16.74353 28.476532 -4e-06 -12.690602 1e-06 16.494066 -16.96755 1.983115 -0.105919 -1.513857 -4.275884 -5.039042 -5.612871 -2.953559 4e-06 -11.020525 -0.0 -6.111298 -15.895334 -3.840469 0.0 -1e-06 -1e-06 -10.283371 -5.68029 -4.341839 11.028297 -11.302407 -2.372632 -1.384269 -14.238583 -6.320119 -0.625437 -26.924194 -3.827602 -4.905474 -49.095943 -3.620677 -13.708526 -7.363477 -3.72094 18.14115 -14.052739 -3.242674 6e-06 -18.78727 -2e-06 -0.429711 -8.456045 2.555504 -0.0 1e-06 -1e-06 -15.923536 -20.094484 -5.473583 30.419222 -7.190829 1.735925 2e-06 -8.162927 -1e-06 -1.8619 -22.861483 -6.167944 -0.0 -3e-06 -2e-06 -179.763397 -1.62996 1.410892 8.108014 -0.168264 0.018928 -80.435928 1.745917 -2.97612 -4.592003 1.539603 2.167829 -0.999999 -0.0 0.0 2.593739 -2.772708 -7.271381 6.238765 -0.094295 -0.022565 -80.59832 -0.915187 -4.490086 -4.076106 0.805232 1.721819 -1.000002 -0.0 -0.0 
